<?xml version="1.0" encoding="UTF-8" standalone="no"?>
<svg
   xmlns:dc="http://purl.org/dc/elements/1.1/"
   xmlns:cc="http://creativecommons.org/ns#"
   xmlns:rdf="http://www.w3.org/1999/02/22-rdf-syntax-ns#"
   xmlns:svg="http://www.w3.org/2000/svg"
   xmlns="http://www.w3.org/2000/svg"
   id="svg6"
   preserveAspectRatio="none"
   viewBox="0 0 560 132"
   height="132px"
   width="560px"
   version="1.1">
  <metadata
     id="metadata12">
    <rdf:RDF>
      <cc:Work
         rdf:about="">
        <dc:format>image/svg+xml</dc:format>
        <dc:type
           rdf:resource="http://purl.org/dc/dcmitype/StillImage" />
        <dc:title></dc:title>
      </cc:Work>
    </rdf:RDF>
  </metadata>
  <defs
     id="defs10">
    <filter
       style="color-interpolation-filters:sRGB"
       id="filter919"
       x="-0.009439875"
       width="1.0188798"
       y="-0.044479965"
       height="1.0889599">
      <feGaussianBlur
         stdDeviation="2.1371691"
         id="feGaussianBlur921" />
    </filter>
  </defs>
  <g
     id="g940"
     transform="translate(16.144144,-119.56757)">
    <g
       id="g82"
       style="fill:#000000;fill-opacity:0.839216;filter:url(#filter919)"
       transform="translate(168.31862,147.1713)">
      <path
         d="m -123.9506,-16.288116 h 27.627519 q 4.327201,0 6.06447,3.47225 1.934892,3.2894904 0.291581,8.0409704 l -2.777012,7.49274 q -0.998457,2.92399 -3.713309,4.20323 l -16.986019,7.8582396 q -0.92575,0.54825 -1.42505,0.54825 -1.16501,0 -0.45777,-2.193 l 3.19302,-8.9547296 h -10.31871 l -9.05902,25.7676896 31.48602,-14.80271 q 0.894556,-0.3655 1.393848,-0.3655 1.664308,0 0.634646,3.10674 l -24.732914,69.81033 q -1.64331,4.75149 -5.86635,8.04098 -4.05662,3.28949 -8.38382,3.28949 h -27.62752 q -4.3272,0 -6.26209,-3.28949 -1.76846,-3.28949 -0.12515,-8.04098 l 5.03396,-13.88897 q 0.76963,-2.55849 2.95399,-3.65499 l 18.07821,-8.40648 q 0.72812,-0.3655 1.22741,-0.3655 0.99858,0 0.32254,2.01025 l -5.18995,14.80272 h 10.31871 l 10.96235,-31.06743 -31.45482,14.61996 q -1.25861,0.54825 -1.92434,0.54825 -1.33144,0 -0.39537,-2.55849 l 22.82957,-64.5105996 q 1.64331,-4.75148 5.69993,-8.0409704 4.25424,-3.47225 8.58144,-3.47225 z"
         style="font-style:italic;font-variant:normal;font-weight:normal;font-stretch:normal;font-size:178.585px;line-height:1.25;font-family:Stardate_81316;-inkscape-font-specification:Stardate_81316;letter-spacing:0px;word-spacing:0px;fill:#000000;fill-opacity:0.839216;stroke-width:6.69693"
         id="path13-9" />
      <path
         d="m -29.584328,-16.288116 q 1.79954,0.18275 1.1547,2.01025 l -5.866,16.8129604 q -0.64485,1.82749 -2.67321,2.01024 h -12.9816 L -82.577477,97.199364 q -0.644835,1.82749 -2.309148,1.82749 h -15.478065 q -1.66431,0 -1.01946,-1.82749 L -68.757118,4.5453344 H -81.73872 q -1.466684,-0.18275 -0.821839,-2.01024 l 5.865997,-16.8129604 q 0.644844,-1.8275 2.340347,-2.01025 22.301737,0 44.769887,0 z"
         style="font-style:italic;font-variant:normal;font-weight:normal;font-stretch:normal;font-size:178.585px;line-height:1.25;font-family:Stardate_81316;-inkscape-font-specification:Stardate_81316;letter-spacing:0px;word-spacing:0px;fill:#000000;fill-opacity:0.839216;stroke-width:6.69693"
         id="path15-0" />
      <path
         d="M 27.408252,-4.7748956 -8.6406381,97.199364 q -0.64485,1.82749 -2.4755799,1.82749 h -15.47807 q -1.66431,0 -1.01946,-1.82749 l 17.44199,-49.52514 -12.28445,5.66525 -15.47626,43.85989 q -0.64484,1.82749 -2.30915,1.82749 h -15.6445 q -1.6643,0 -1.01946,-1.82749 l 36.04888,-101.9742596 q 1.64331,-4.75148 5.69993,-8.0409704 4.22305,-3.2895 8.5502499,-3.2895 H 21.020992 q 4.32721,0 6.09567,3.2895 1.93489,3.2894904 0.29159,8.0409704 z m -41.54387,34.7224196 12.3156399,-5.84798 6.80206,-19.3714596 h -10.31871 z"
         style="font-style:italic;font-variant:normal;font-weight:normal;font-stretch:normal;font-size:178.585px;line-height:1.25;font-family:Stardate_81316;-inkscape-font-specification:Stardate_81316;letter-spacing:0px;word-spacing:0px;fill:#000000;fill-opacity:0.839216;stroke-width:6.69693"
         id="path17-4" />
      <path
         d="m 43.021062,-16.288116 h 15.64449 q 1.63312,0.18275 0.98827,2.01025 l -0.38482,1.27925 q 1.74746,-1.462 4.89921,-2.37576 3.15175,-0.91374 4.4832,-0.91374 h 10.65157 q 4.32719,0 6.06446,3.47225 1.9349,3.2894904 0.29159,8.0409704 L 74.301412,26.658034 q -1.32089,3.83774 -4.70134,8.04098 -3.18282,4.02049 -6.95866,5.66524 l -7.94691,3.65499 1.63527,52.81462 q 0.0728,0.54825 -0.0208,1.09649 -0.35362,1.0965 -1.68506,1.0965 h -18.3074 q -1.99716,0 -2.28851,-2.19299 l -1.07287,-35.63617 -12.63685,36.00167 q -0.64485,1.82749 -2.30916,1.82749 H 2.3646319 q -1.66431,0 -1.01947,-1.82749 L 40.680662,-14.277866 q 0.64485,-1.8275 2.34036,-2.01025 z m 13.40974,40.38766 6.83326,-19.5542096 h -10.31871 l -8.83019,25.4021896 z"
         style="font-style:italic;font-variant:normal;font-weight:normal;font-stretch:normal;font-size:178.585px;line-height:1.25;font-family:Stardate_81316;-inkscape-font-specification:Stardate_81316;letter-spacing:0px;word-spacing:0px;fill:#000000;fill-opacity:0.839216;stroke-width:6.69693"
         id="path19-7" />
      <path
         d="m 191.63791,-16.288116 q 1.79954,0.18275 1.1547,2.01025 l -5.866,16.8129604 q -0.64484,1.82749 -2.67322,2.01024 h -12.9816 L 138.64476,97.199364 q -0.64484,1.82749 -2.30915,1.82749 h -15.47807 q -1.6643,0 -1.01947,-1.82749 L 152.46512,4.5453344 h -12.98161 q -1.46668,-0.18275 -0.82184,-2.01024 l 5.866,-16.8129604 q 0.64484,-1.8275 2.34035,-2.01025 22.30173,0 44.76989,0 z"
         style="font-style:italic;font-variant:normal;font-weight:normal;font-stretch:normal;font-size:178.585px;line-height:1.25;font-family:Stardate_81316;-inkscape-font-specification:Stardate_81316;letter-spacing:0px;word-spacing:0px;fill:#000000;fill-opacity:0.839216;stroke-width:6.69693"
         id="path21-4" />
      <path
         d="m 203.58524,-16.288116 h 15.64449 q 1.63311,0.18275 0.98827,2.01025 l -0.38482,1.27925 q 1.74746,-1.462 4.89921,-2.37576 3.15174,-0.91374 4.48319,-0.91374 h 10.65157 q 4.32721,0 6.06447,3.47225 1.93489,3.2894904 0.29158,8.0409704 L 234.86559,26.658034 q -1.32088,3.83774 -4.70134,8.04098 -3.18283,4.02049 -6.95865,5.66524 l -7.94693,3.65499 1.63527,52.81462 q 0.0728,0.54825 -0.0208,1.09649 -0.35363,1.0965 -1.68507,1.0965 h -18.30739 q -1.99717,0 -2.28851,-2.19299 l -1.07286,-35.63617 -12.63687,36.00167 q -0.64484,1.82749 -2.30914,1.82749 h -15.64451 q -1.6643,0 -1.01945,-1.82749 l 39.33549,-111.47723 q 0.64484,-1.8275 2.34036,-2.01025 z m 13.40974,40.38766 6.83325,-19.5542096 h -10.3187 l -8.83019,25.4021896 z"
         style="font-style:italic;font-variant:normal;font-weight:normal;font-stretch:normal;font-size:178.585px;line-height:1.25;font-family:Stardate_81316;-inkscape-font-specification:Stardate_81316;letter-spacing:0px;word-spacing:0px;fill:#000000;fill-opacity:0.839216;stroke-width:6.69693"
         id="path23-3" />
      <path
         d="m 265.20621,-16.288116 h 39.61053 q 1.63311,0.18275 0.98827,2.01025 l -5.86599,16.8129604 q -0.64485,1.82749 -2.50679,2.01024 H 275.1305 l -8.83018,25.4021896 27.14849,-12.79247 q 0.36407,-0.18275 0.69693,-0.18275 0.66571,0 0.11447,1.27925 l -6.69803,19.73695 q -0.81128,1.8275 -2.43395,2.5585 l -27.1485,12.79247 -8.73659,24.85394 h 22.30173 q 1.6643,0 1.01945,1.82749 l -6.09481,17.17846 q -0.64484,1.82749 -2.30916,1.82749 h -39.61053 q -1.6643,0 -1.01946,-1.82749 l 39.3355,-111.47723 q 0.64484,-1.8275 2.34035,-2.01025 z"
         style="font-style:italic;font-variant:normal;font-weight:normal;font-stretch:normal;font-size:178.585px;line-height:1.25;font-family:Stardate_81316;-inkscape-font-specification:Stardate_81316;letter-spacing:0px;word-spacing:0px;fill:#000000;fill-opacity:0.839216;stroke-width:6.69693"
         id="path25-3" />
      <path
         d="m 319.90842,-16.288116 h 15.64449 c 1.08875,0.12183 1.41817,0.79192 0.98828,2.01025 l -11.28478,31.98117 24.9321,-31.98117 c 1.09562,-1.21833 2.31955,-1.88842 3.6718,-2.01025 h 16.47665 c 0.99859,0 1.39041,0.30458 1.17546,0.91374 -0.0416,0.24367 -0.27043,0.60918 -0.68649,1.09651 l -35.42708,45.68739 -1.39111,65.78984 c -0.0416,0.24367 -0.12828,0.42642 -0.26002,0.54825 -0.25655,0.85283 -0.9396,1.27924 -2.04914,1.27924 h -16.97594 c -1.22049,0 -1.83769,-0.60916 -1.85161,-1.82749 l 0.87213,-38.37741 -5.60632,7.49273 -10.93116,30.88468 c -0.42989,1.21833 -1.19961,1.82749 -2.30915,1.82749 h -15.6445 c -1.10953,0 -1.44935,-0.60916 -1.01946,-1.82749 l 39.3355,-111.47723 c 0.42989,-1.21833 1.21001,-1.88842 2.34035,-2.01025 z"
         style="font-style:italic;font-variant:normal;font-weight:normal;font-stretch:normal;font-size:178.585px;line-height:1.25;font-family:Stardate_81316;-inkscape-font-specification:Stardate_81316;letter-spacing:0px;word-spacing:0px;fill:#000000;fill-opacity:0.839216;stroke-width:6.69693"
         id="path27-2" />
    </g>
    <path
       d="m 39.827488,126.84718 h 27.627515 q 4.327201,0 6.06447,3.47225 1.934892,3.28949 0.291581,8.04097 l -2.777012,7.49274 q -0.998457,2.92399 -3.713309,4.20323 l -16.986023,7.85824 q -0.92575,0.54825 -1.425042,0.54825 -1.165016,0 -0.457774,-2.193 l 3.193023,-8.95473 h -10.31871 l -9.059019,25.76769 31.486021,-14.80271 q 0.894551,-0.3655 1.393843,-0.3655 1.664308,0 0.634646,3.10674 l -24.732912,69.81033 q -1.643309,4.75149 -5.866355,8.04098 -4.056617,3.28949 -8.383818,3.28949 H -0.82890124 q -4.32720126,0 -6.26209516,-3.28949 -1.7684626,-3.28949 -0.1251536,-8.04098 l 5.0339615,-13.88897 q 0.7696372,-2.55849 2.95399714,-3.65499 L 18.85001,204.88124 q 0.72812,-0.3655 1.227412,-0.3655 0.998586,0 0.322544,2.01025 l -5.189955,14.80272 H 25.528722 L 36.491075,190.26128 5.0362521,204.88124 q -1.2586109,0.54825 -1.9243335,0.54825 -1.3314471,0 -0.3953785,-2.55849 L 25.546117,138.3604 q 1.643309,-4.75148 5.699924,-8.04097 4.254246,-3.47225 8.581447,-3.47225 z"
       style="font-style:italic;font-variant:normal;font-weight:normal;font-stretch:normal;font-size:178.585px;line-height:1.25;font-family:Stardate_81316;-inkscape-font-specification:Stardate_81316;letter-spacing:0px;word-spacing:0px;fill:#fff500;fill-opacity:1;stroke-width:6.69693"
       id="path13" />
    <path
       d="m 134.19376,126.84718 q 1.79954,0.18275 1.1547,2.01025 l -5.866,16.81296 q -0.64485,1.82749 -2.67321,2.01024 h -12.9816 l -32.627043,92.65403 q -0.644835,1.82749 -2.309148,1.82749 h -15.47806 q -1.664314,0 -1.019469,-1.82749 L 95.020963,147.68063 H 82.039364 q -1.466684,-0.18275 -0.821839,-2.01024 l 5.865997,-16.81296 q 0.644844,-1.8275 2.340347,-2.01025 22.301741,0 44.769891,0 z"
       style="font-style:italic;font-variant:normal;font-weight:normal;font-stretch:normal;font-size:178.585px;line-height:1.25;font-family:Stardate_81316;-inkscape-font-specification:Stardate_81316;letter-spacing:0px;word-spacing:0px;fill:#fff500;fill-opacity:1;stroke-width:6.69693"
       id="path15" />
    <path
       d="m 191.18634,138.3604 -36.04889,101.97426 q -0.64485,1.82749 -2.47558,1.82749 H 137.1838 q -1.66431,0 -1.01946,-1.82749 l 17.44199,-49.52514 -12.28445,5.66525 -15.47626,43.85989 q -0.64484,1.82749 -2.30915,1.82749 h -15.6445 q -1.6643,0 -1.01946,-1.82749 L 142.92139,138.3604 q 1.64331,-4.75148 5.69993,-8.04097 4.22305,-3.2895 8.55025,-3.2895 h 27.62751 q 4.32721,0 6.09567,3.2895 1.93489,3.28949 0.29159,8.04097 z m -41.54387,34.72242 12.31564,-5.84798 6.80206,-19.37146 h -10.31871 z"
       style="font-style:italic;font-variant:normal;font-weight:normal;font-stretch:normal;font-size:178.585px;line-height:1.25;font-family:Stardate_81316;-inkscape-font-specification:Stardate_81316;letter-spacing:0px;word-spacing:0px;fill:#fff500;fill-opacity:1;stroke-width:6.69693"
       id="path17" />
    <path
       d="m 206.79915,126.84718 h 15.64449 q 1.63312,0.18275 0.98827,2.01025 l -0.38482,1.27925 q 1.74746,-1.462 4.89921,-2.37576 3.15175,-0.91374 4.4832,-0.91374 h 10.65157 q 4.32719,0 6.06446,3.47225 1.9349,3.28949 0.29159,8.04097 l -11.35762,31.43293 q -1.32089,3.83774 -4.70134,8.04098 -3.18282,4.02049 -6.95866,5.66524 l -7.94691,3.65499 1.63527,52.81462 q 0.0728,0.54825 -0.0208,1.09649 -0.35362,1.0965 -1.68506,1.0965 h -18.3074 q -1.99716,0 -2.28851,-2.19299 l -1.07287,-35.63617 -12.63685,36.00167 q -0.64485,1.82749 -2.30916,1.82749 h -15.64449 q -1.66431,0 -1.01947,-1.82749 l 39.3355,-111.47723 q 0.64485,-1.8275 2.34036,-2.01025 z m 13.40974,40.38766 6.83326,-19.55421 h -10.31871 l -8.83019,25.40219 z"
       style="font-style:italic;font-variant:normal;font-weight:normal;font-stretch:normal;font-size:178.585px;line-height:1.25;font-family:Stardate_81316;-inkscape-font-specification:Stardate_81316;letter-spacing:0px;word-spacing:0px;fill:#fff500;fill-opacity:1;stroke-width:6.69693"
       id="path19" />
    <path
       d="m 355.416,126.84718 q 1.79954,0.18275 1.1547,2.01025 l -5.866,16.81296 q -0.64484,1.82749 -2.67322,2.01024 h -12.9816 l -32.62703,92.65403 q -0.64484,1.82749 -2.30915,1.82749 h -15.47807 q -1.6643,0 -1.01947,-1.82749 l 32.62705,-92.65403 H 303.2616 q -1.46668,-0.18275 -0.82184,-2.01024 l 5.866,-16.81296 q 0.64484,-1.8275 2.34035,-2.01025 22.30173,0 44.76989,0 z"
       style="font-style:italic;font-variant:normal;font-weight:normal;font-stretch:normal;font-size:178.585px;line-height:1.25;font-family:Stardate_81316;-inkscape-font-specification:Stardate_81316;letter-spacing:0px;word-spacing:0px;fill:#fff500;fill-opacity:1;stroke-width:6.69693"
       id="path21" />
    <path
       d="m 367.36333,126.84718 h 15.64449 q 1.63311,0.18275 0.98827,2.01025 l -0.38482,1.27925 q 1.74746,-1.462 4.89921,-2.37576 3.15174,-0.91374 4.48319,-0.91374 h 10.65157 q 4.32721,0 6.06447,3.47225 1.93489,3.28949 0.29158,8.04097 l -11.35761,31.43293 q -1.32088,3.83774 -4.70134,8.04098 -3.18283,4.02049 -6.95865,5.66524 l -7.94693,3.65499 1.63527,52.81462 q 0.0728,0.54825 -0.0208,1.09649 -0.35363,1.0965 -1.68507,1.0965 h -18.30739 q -1.99717,0 -2.28851,-2.19299 l -1.07286,-35.63617 -12.63687,36.00167 q -0.64484,1.82749 -2.30914,1.82749 h -15.64451 q -1.6643,0 -1.01945,-1.82749 l 39.33549,-111.47723 q 0.64484,-1.8275 2.34036,-2.01025 z m 13.40974,40.38766 6.83325,-19.55421 h -10.3187 l -8.83019,25.40219 z"
       style="font-style:italic;font-variant:normal;font-weight:normal;font-stretch:normal;font-size:178.585px;line-height:1.25;font-family:Stardate_81316;-inkscape-font-specification:Stardate_81316;letter-spacing:0px;word-spacing:0px;fill:#fff500;fill-opacity:1;stroke-width:6.69693"
       id="path23" />
    <path
       d="m 428.9843,126.84718 h 39.61053 q 1.63311,0.18275 0.98827,2.01025 l -5.86599,16.81296 q -0.64485,1.82749 -2.50679,2.01024 h -22.30173 l -8.83018,25.40219 27.14849,-12.79247 q 0.36407,-0.18275 0.69693,-0.18275 0.66571,0 0.11447,1.27925 l -6.69803,19.73695 q -0.81128,1.8275 -2.43395,2.5585 l -27.1485,12.79247 -8.73659,24.85394 h 22.30173 q 1.6643,0 1.01945,1.82749 l -6.09481,17.17846 q -0.64484,1.82749 -2.30916,1.82749 h -39.61053 q -1.6643,0 -1.01946,-1.82749 l 39.3355,-111.47723 q 0.64484,-1.8275 2.34035,-2.01025 z"
       style="font-style:italic;font-variant:normal;font-weight:normal;font-stretch:normal;font-size:178.585px;line-height:1.25;font-family:Stardate_81316;-inkscape-font-specification:Stardate_81316;letter-spacing:0px;word-spacing:0px;fill:#fff500;fill-opacity:1;stroke-width:6.69693"
       id="path25" />
    <path
       d="M 483.68651,126.84718 H 499.331 c 1.08875,0.12183 1.41817,0.79192 0.98828,2.01025 l -11.28478,31.98117 24.9321,-31.98117 c 1.09562,-1.21833 2.31955,-1.88842 3.6718,-2.01025 h 16.47665 c 0.99859,0 1.39041,0.30458 1.17546,0.91374 -0.0416,0.24367 -0.27043,0.60918 -0.68649,1.09651 l -35.42708,45.68739 -1.39111,65.78984 c -0.0416,0.24367 -0.12828,0.42642 -0.26002,0.54825 -0.25655,0.85283 -0.9396,1.27924 -2.04914,1.27924 h -16.97594 c -1.22049,0 -1.83769,-0.60916 -1.85161,-1.82749 l 0.87213,-38.37741 -5.60632,7.49273 -10.93116,30.88468 c -0.42989,1.21833 -1.19961,1.82749 -2.30915,1.82749 h -15.6445 c -1.10953,0 -1.44935,-0.60916 -1.01946,-1.82749 l 39.3355,-111.47723 c 0.42989,-1.21833 1.21001,-1.88842 2.34035,-2.01025 z"
       style="font-style:italic;font-variant:normal;font-weight:normal;font-stretch:normal;font-size:178.585px;line-height:1.25;font-family:Stardate_81316;-inkscape-font-specification:Stardate_81316;letter-spacing:0px;word-spacing:0px;fill:#fff500;fill-opacity:1;stroke-width:6.69693"
       id="path27" />
  </g>
</svg>
